PathFileType	4	(X/Y/Z)	Formatted/subject01/trials/walk2/markers.trc
DataRate	CameraRate	NumFrames	NumMarkers	Units	OrigDataRate	OrigDataStartFrame	OrigNumFrames
200.00000000000426	200.00000000000426	4	64	m	200.00000000000426	83	223
Frame#	Time	CLAV			C7			RACR			RASH			RPSH			RLEL			RMEL			RUA1			RUA2			RUA3			RFAsuperior			RFAradius			RFAulna			RASI			RPSI			RCAL			RTOE			RMT5			RTH1			RTH2			RTH3			RTB1			RTB2			RTB3			RLFC			RMFC			RLMAL			RMMAL			RHJC			RKJC			REJC			RAJC			RSJC			LACR			LASH			LPSH			LLEL			LMEL			LUA1			LUA2			LUA3			LFAsuperior			LFAradius			LFAulna			LASI			LPSI			LCAL			LTOE			LMT5			LTH1			LTH2			LTH3			LTB1			LTB2			LTB3			LLFC			LMFC			LLMAL			LMMAL			LHJC			LKJC			LEJC			LAJC			LSJC			
		X1	Y1	Z1	X2	Y2	Z2	X3	Y3	Z3	X4	Y4	Z4	X5	Y5	Z5	X6	Y6	Z6	X7	Y7	Z7	X8	Y8	Z8	X9	Y9	Z9	X10	Y10	Z10	X11	Y11	Z11	X12	Y12	Z12	X13	Y13	Z13	X14	Y14	Z14	X15	Y15	Z15	X16	Y16	Z16	X17	Y17	Z17	X18	Y18	Z18	X19	Y19	Z19	X20	Y20	Z20	X21	Y21	Z21	X22	Y22	Z22	X23	Y23	Z23	X24	Y24	Z24	X25	Y25	Z25	X26	Y26	Z26	X27	Y27	Z27	X28	Y28	Z28	X29	Y29	Z29	X30	Y30	Z30	X31	Y31	Z31	X32	Y32	Z32	X33	Y33	Z33	X34	Y34	Z34	X35	Y35	Z35	X36	Y36	Z36	X37	Y37	Z37	X38	Y38	Z38	X39	Y39	Z39	X40	Y40	Z40	X41	Y41	Z41	X42	Y42	Z42	X43	Y43	Z43	X44	Y44	Z44	X45	Y45	Z45	X46	Y46	Z46	X47	Y47	Z47	X48	Y48	Z48	X49	Y49	Z49	X50	Y50	Z50	X51	Y51	Z51	X52	Y52	Z52	X53	Y53	Z53	X54	Y54	Z54	X55	Y55	Z55	X56	Y56	Z56	X57	Y57	Z57	X58	Y58	Z58	X59	Y59	Z59	X60	Y60	Z60	X61	Y61	Z61	X62	Y62	Z62	X63	Y63	Z63	X64	Y64	Z64	

84	3.795	1.513376551599661	1.464829285775622	-0.464976646876612	1.392429746768379	1.538336094418374	-0.4789712212266008	1.481352686804818	1.486235035893157	-0.3253731776909377	1.538761311535199	1.444575812546029	-0.3084663855694108	1.443245547613364	1.465883254692353	-0.2885468323703733	1.417557588423137	1.138531366862637	-0.2005168406518701	1.417400292418262	1.121156603057778	-0.2801497293630759	1.407320950412578	1.360970179819431	-0.2439601363157815	1.466595234866767	1.304184948003881	-0.2458076308160412	1.438097746244195	1.201547451675435	-0.2124571575914856	1.510627531158668	1.087226251900304	-0.2277257824482649	1.636746503699867	0.9701448611006835	-0.2444078463338978	1.587545864463278	0.9300961127365241	-0.2178853443574764	1.483649452242981	1.04621816923291	-0.3670962684963315	1.313233585082737	1.075272625727728	-0.4381473913616128	1.185996536044407	0.0575031096334342	-0.4413583944417755	1.426923044821592	0.04147135154538513	-0.4610126605705661	1.379205126963437	0.01449898277141384	-0.3671798527307719	1.419499045835124	0.9079273348587082	-0.3157460022623688	1.343320817627459	0.7747373614641613	-0.3396854288070342	1.358369958462609	0.6189713353500772	-0.3569488151134675	1.37936038818187	0.3569418975561777	-0.4287400135820723	1.295703499154125	0.3222390816703785	-0.3624189880536712	1.325199213122397	0.1759585098825388	-0.4413538161542325	1.37310577863949	0.5242922806412302	-0.3648941254999552	1.375163680052557	0.5271599574636183	-0.4786077584116533	1.265498012254986	0.0654840434712653	-0.3788218925819283	1.276446143712916	0.06656609783123141	-0.482917670112013	1.406820275838354	0.9333941166604069	-0.4108786861969609	1.375193685097548	0.5249932580958436	-0.4235941266876429	1.419969961210765	1.118575310246744	-0.2445590092084698	1.255369825392311	0.0559796808220942	-0.4395179268252624	1.494016951926015	1.454557283819474	-0.2991350708733217	1.414687491993204	1.509725355789652	-0.6484887946105878	1.46379336956303	1.465303835984599	-0.6901155787707827	1.360636344527448	1.488315873502629	-0.6686024613158221	1.294881497995152	1.158651322555398	-0.7338461704899932	1.297180683905589	1.151941674895193	-0.6469631836011359	1.323837724150882	1.395568237579639	-0.6988028808269295	1.364741190634967	1.313173859797089	-0.7123526914770592	1.314277737764237	1.22813225009362	-0.7236665808957681	1.327524795895178	1.076559857864698	-0.7240611668163642	1.354859211468353	0.8954936074320893	-0.701968645401839	1.28441270023	0.8909312566085523	-0.7146082683371116	1.480643150823195	1.042041262863941	-0.6172207255556514	1.312277359431253	1.077922706325689	-0.5509552442476203	1.414596069299065	0.1444909085202884	-0.5497774402317736	1.641536047344013	0.07558411120205444	-0.5575757571348811	1.578643179501086	0.0427234559407513	-0.645241750030224	1.434147832541127	0.919947694125953	-0.6724272474692735	1.445915085375801	0.7506288988082065	-0.6390189174116417	1.553245733746224	0.6583997900130708	-0.658510586829362	1.641909453425159	0.4438372972977114	-0.6065784342381897	1.533046717531974	0.3573606504867839	-0.647130149044829	1.566500405387968	0.2414128343846258	-0.587107245524947	1.60302552626518	0.5869292030236668	-0.6857477870672988	1.637031106873443	0.5888318966888302	-0.5771971118834407	1.479659536757986	0.1333666079424505	-0.6242120712728735	1.508906428705862	0.139302320730168	-0.5238808700005777	1.406280284052219	0.9313595567234241	-0.5705323345665454	1.627835694934418	0.5841306252149445	-0.6306958041893196	1.298747977416833	1.148397133368059	-0.6849283258570561	1.479785451541243	0.1280927544529271	-0.5621710182015515	1.419049009953846	1.475285307258045	-0.6807842640746935	
85	3.8	1.519519788759094	1.464163735807376	-0.465295412293753	1.398655151800331	1.53782010723098	-0.4792132824077535	1.487616630569333	1.48561824300078	-0.3256717922225932	1.544984744553052	1.443888689330778	-0.3088009726926009	1.449509009505334	1.465316253945319	-0.2888184718524239	1.425102059563418	1.137707969435268	-0.2004388190322219	1.424874012028961	1.12026798956026	-0.2800572793293192	1.413992749716589	1.360073132009484	-0.2440444598783139	1.473467719783482	1.303499898795125	-0.245945460942577	1.44539542237287	1.200787764881635	-0.212464417952633	1.518720940268137	1.087812385241196	-0.2280821851749708	1.646620269164849	0.972768194321694	-0.2453719036617885	1.598195138831677	0.9319360960299192	-0.2186175627201736	1.489050874413644	1.045510589730502	-0.3671634830047936	1.318783977801269	1.074842249554172	-0.4384574444081512	1.186103585478991	0.05776402568840074	-0.4414327454275124	1.427022323552604	0.04130896340173749	-0.4608307516698603	1.379164171038024	0.01449259001817558	-0.3670246562093781	1.42465271841714	0.9072346299771841	-0.3159899917485854	1.34726632997332	0.7747324074203782	-0.3398708524976338	1.360907032854008	0.6188385079727181	-0.3571503020819953	1.380418665632132	0.3566947257180892	-0.4288366277483157	1.296603044559743	0.3223006896600779	-0.3625551756879333	1.325687050261747	0.1758780843507023	-0.4413793545868043	1.374788606504422	0.5240316398764042	-0.3651099144306018	1.376779788375637	0.5268844244193034	-0.4788251097813884	1.265586961959132	0.06563373901980296	-0.3788234093209996	1.276613836592061	0.06661699047093433	-0.4829118552507207	1.412125125435391	0.9328168861256917	-0.4111117207120619	1.376786688598209	0.524761690689826	-0.4237962533802726	1.427512497103079	1.117724900642372	-0.24446884403536	1.255472304719385	0.05612471605845154	-0.4395209697547033	1.500259136469948	1.45392643197446	-0.29944017017402	1.420763084039641	1.509170859116883	-0.6487439557030857	1.469785593556291	1.464685603140466	-0.6904009281640726	1.366671799704756	1.487827372924169	-0.6688198272566814	1.299369138710158	1.158654478662276	-0.7338842311200307	1.301457637150922	1.15206300596663	-0.6469868796053286	1.329475601922145	1.395471158682098	-0.6991339685965767	1.369981020394071	1.312846904528978	-0.7124781856697981	1.319102740384056	1.228049668315757	-0.7237683984310374	1.331578625999738	1.076398784134787	-0.7238209186212995	1.357753611923258	0.8952036762334536	-0.7013834542496268	1.287342778631789	0.8910354949520264	-0.7143536847273164	1.486414357798915	1.041449418411925	-0.6172940170903441	1.318001057693954	1.077543946368066	-0.5512654088337835	1.433705234757483	0.1371732100073956	-0.5499016466882205	1.662430953749212	0.07458278104911953	-0.5587162806995871	1.600189268385453	0.0404094824874583	-0.6463451576097176	1.439599720642118	0.9188134870036778	-0.6726139729353899	1.451289595581908	0.7496910217417464	-0.6381991829173386	1.558547401512402	0.6572797883013293	-0.6572236084394737	1.651447510623278	0.4434636756506071	-0.6057637085510879	1.545132954094565	0.353911685214881	-0.6464011711031834	1.582373204937958	0.2387084780046941	-0.5871797307070632	1.608260900190329	0.585616008604265	-0.6840714827197969	1.64235588970594	0.5881491954338939	-0.575561743557929	1.49874655672633	0.1282551458521775	-0.6245794196346759	1.528197047681988	0.134517503195797	-0.5243276626095619	1.411822072851816	0.9308542115741819	-0.5707668945421689	1.632972867861052	0.5833925444197331	-0.6290131242277978	1.30308355842874	1.148453664062725	-0.6849434500657809	1.49928186956707	0.122635328217196	-0.5625709303668966	1.425059985473188	1.474723345784147	-0.6810401256454917	
86	3.805	1.52567890429808	1.463458080498773	-0.4656322337380361	1.404894260965805	1.537258926460462	-0.4794790274972418	1.493887718345144	1.484957452763357	-0.325989975982359	1.55121606838239	1.443159811669196	-0.3091525716654578	1.455778491157078	1.464702984091779	-0.2891121768746	1.432669832518874	1.136835604440654	-0.2004032229484231	1.432368418088826	1.119336252362359	-0.2800084109073768	1.420678471648047	1.359126795352386	-0.2441521419412174	1.480355083875815	1.302768394204088	-0.2461140692728282	1.452713380106468	1.199979754783064	-0.212509777978864	1.526806916176983	1.088344925299095	-0.2284843322686032	1.656431731324968	0.975345280162024	-0.246395950248341	1.608787643289272	0.9337482993251627	-0.2194185463995891	1.494477297961679	1.04475049727827	-0.3672605076453869	1.324362435335519	1.074389051588959	-0.4387900882023795	1.186213278856564	0.05804587688843506	-0.4415010964074507	1.427121119385701	0.04113805179946486	-0.460643402913379	1.379120166119383	0.01448462840029147	-0.3668638331994714	1.429798397572256	0.9065105975474946	-0.3162402808732294	1.351248121913135	0.7746846256569013	-0.3400636924249602	1.363523138727714	0.6186779540566392	-0.3573494789683763	1.381550858087138	0.3564263837032344	-0.4289272497272461	1.297570941082513	0.3223614067495219	-0.3626838362857411	1.326205238187029	0.1757918542243428	-0.4413994841217315	1.376575758970673	0.5237540623556594	-0.3653168902868404	1.378511306736402	0.5265877548329172	-0.4790335235484302	1.265681925505466	0.06579306608556101	-0.3788193130643737	1.276784815069615	0.06667542021463979	-0.4829005823599014	1.417426116933931	0.9321991891937945	-0.4113536798641261	1.378494549975152	0.5245078804594003	-0.4239905732452861	1.43507721012663	1.116828978528188	-0.2444227163796688	1.255576953072929	0.05628227531464886	-0.4395182096145567	1.506508335331193	1.453251710790555	-0.2997646487256805	1.426863129836615	1.508575179538445	-0.6490219445902909	1.475806450830786	1.464029113470412	-0.6907070393021519	1.372733867427449	1.487295739686802	-0.6690634129280254	1.303897795168893	1.158612757223739	-0.7338993720551974	1.305805255619679	1.15214301559924	-0.6469887105904201	1.335144835054003	1.395326516733899	-0.6994561090683848	1.375253655395008	1.312477963592915	-0.7126061738036275	1.323965582103197	1.227922421766991	-0.7238548819476958	1.335682556085203	1.076198601987984	-0.7235658953280778	1.360719580171024	0.894885014317151	-0.7007894343703356	1.290344535025225	0.8911033448554321	-0.7140686683635828	1.49219353153834	1.040769600612397	-0.6173958016103142	1.323746197748106	1.077126264836468	-0.5515982301173001	1.452851596286697	0.1300397247135954	-0.5502487075570424	1.683177564757801	0.07376684052471677	-0.5599453487864287	1.621663921371461	0.03834345592861366	-0.6475918963575173	1.445124870875519	0.9176040227167425	-0.6727795644021114	1.456578216762927	0.7486724008933617	-0.63736251737002	1.563712057923015	0.6560034492675725	-0.6558234829003499	1.660759109410163	0.4430171876481105	-0.6048449833965256	1.557127439247846	0.3504626227136226	-0.6456846299758802	1.598132252124588	0.2361069643743917	-0.5873135501184052	1.613331173366097	0.5841140191767873	-0.6822392139807119	1.647414184785278	0.5872428276327128	-0.5737412521159558	1.517836945771844	0.1233453641610384	-0.6251232962380296	1.547436750861881	0.1298997126947916	-0.5249341981405777	1.417349271614941	0.9302854398847822	-0.5710097167727392	1.637872643184916	0.5824463586723964	-0.6271530985277658	1.307477338183527	1.1484677372946	-0.6849369474319829	1.518767518408562	0.1173624129203185	-0.5631534650265509	1.431098717779589	1.474121012591771	-0.6813191163623745	
87	3.81	1.531854160122409	1.462712274658157	-0.4659882339764455	1.41114734981967	1.536652597740287	-0.4797694964739356	1.500166538197677	1.484253060246986	-0.3263288202724647	1.557455880617266	1.442389560260362	-0.3095222942435311	1.462054632482515	1.464043981774145	-0.2894288940515516	1.440262669624965	1.135914838675102	-0.2004103220350467	1.439884822280267	1.11836181150047	-0.2800033656518718	1.42737926964234	1.358131586118504	-0.2442836552352008	1.487258522081997	1.301990970639261	-0.2463141740629986	1.460053196507207	1.199123990131849	-0.2125936883558712	1.534887335456927	1.088822707540762	-0.2289320892412927	1.666181928498815	0.9778719618557348	-0.247479337873012	1.619323273064231	0.9355288924495702	-0.2202878108463499	1.499929589909952	1.043939711125896	-0.3673872527896374	1.32996943358477	1.073912162048011	-0.4391451006548379	1.186326025676192	0.0583487138777674	-0.4415635791577265	1.427219728825649	0.04095867874992071	-0.4604500964971297	1.379073240650294	0.01447541743141361	-0.366696927295163	1.434938141768014	0.9057563019275694	-0.3164965074879591	1.355269354655742	0.7745931760233399	-0.3402642665762128	1.366223419751751	0.6184877911050388	-0.3575464335525003	1.382761507677575	0.3561342897243782	-0.4290118700808287	1.298611458926469	0.3224200245202089	-0.3628049478122905	1.326755748305324	0.1756985247072538	-0.4414141736088649	1.378473604963867	0.5234571037716282	-0.365514945408063	1.380365563412227	0.5262670768626208	-0.4792329008197638	1.265783405305476	0.06596194245757947	-0.3788095532938408	1.27695952354012	0.06674109761717495	-0.4828838086219165	1.422725748003688	0.9315417430188433	-0.4116043631195462	1.380324337344225	0.5242288657605747	-0.424177094622387	1.442665628265552	1.115888036509642	-0.2444208813826432	1.255684130486977	0.05645243027598312	-0.4395095984138299	1.512765165928541	1.452533574018494	-0.3001095409235983	1.432987502002488	1.507937844199453	-0.6493237944291637	1.481855687673403	1.463333717695225	-0.6910349454710689	1.378822339687872	1.486720492930111	-0.6693340732637311	1.308468939682309	1.15852421878135	-0.7338891327055089	1.310227712163432	1.152179195945926	-0.6469661412539844	1.340845264798688	1.395132768781639	-0.6997674761379539	1.380559633898748	1.312065887164347	-0.7127361497249292	1.328867290481591	1.22774879956842	-0.7239240861636004	1.339838051616052	1.075957179405864	-0.7232956928868283	1.363759972243696	0.8945350684923845	-0.7001873349165116	1.293419619326671	0.8911324127547526	-0.7137498842372643	1.497981215777383	1.040003321812419	-0.6175260884223187	1.329513043646398	1.076668655177417	-0.5519535330580722	1.472003898797343	0.1231280232062923	-0.550826629772977	1.703751453911263	0.07317629041311051	-0.5612482029698467	1.643048355990336	0.03656841833023534	-0.6489731105184018	1.450737201346965	0.9163290860124386	-0.6729216228222756	1.461794831715372	0.7475806546047621	-0.6365192202579928	1.568757465577909	0.6545843671827918	-0.6543149289645691	1.669845456288403	0.442513100914612	-0.6038161006403729	1.569028649592996	0.3470414089028474	-0.6449849577501121	1.613760060829186	0.2336359948072622	-0.5875035943389071	1.618258596487685	0.582441046398442	-0.6802555713911036	1.652215854966207	0.5861233849944397	-0.5717355556444808	1.536907997969162	0.1186761393494088	-0.6258452645406072	1.566594177311945	0.1254845769950026	-0.5256986756995232	1.422864161374064	0.9296537832184746	-0.5712606655711447	1.64255094901609	0.5813049856981536	-0.6251177123282583	1.311932394157808	1.148437110760818	-0.6849063978143408	1.538213773574903	0.1123128024582972	-0.5639201117750477	1.437164972984679	1.473477731453356	-0.6816221921511362	
